<svg xmlns="http://www.w3.org/2000/svg" width="70" height="70" viewBox="0 0 70 70">
    <defs>
        <clipPath id="prefix__clip-path">
            <path id="prefix__Rectangle_12210" d="M0 0H70V70H0z" data-name="Rectangle 12210" transform="translate(240 1955)" style="fill:none;stroke:#707070"/>
        </clipPath>
        <style>
            .prefix__cls-5{fill:#ebfaf8}
        </style>
    </defs>
    <g id="prefix__Mask_Group_76" data-name="Mask Group 76" transform="translate(-240 -1955)">
        <g id="prefix__sale" transform="translate(247.401 1966.147)">
            <path id="prefix__Path_24590" d="M347.341 65.5a2.885 2.885 0 1 1-2.885-2.886 2.886 2.886 0 0 1 2.885 2.886zm0 0" data-name="Path 24590" transform="translate(-304.879 -55.884)" style="fill:#fff"/>
            <path id="prefix__Path_24591" d="M63.973 97.9l20.366-20.369L97.96 91.152l-20.366 20.367zm0 0" data-name="Path 24591" transform="translate(-57.101 -69.203)" style="fill:#42c8b7"/>
            <path id="prefix__Path_24592" d="M212.151 268.956a2.093 2.093 0 1 1-2.093-2.093 2.093 2.093 0 0 1 2.093 2.093zm0 0" class="prefix__cls-5" data-name="Path 24592" transform="translate(-185.625 -238.197)"/>
            <path id="prefix__Path_24593" d="M217.1 167.718a2.093 2.093 0 1 1-2.093-2.093 2.093 2.093 0 0 1 2.093 2.093zm0 0" class="prefix__cls-5" data-name="Path 24593" transform="translate(-190.046 -147.833)"/>
            <path id="prefix__Path_24594" d="M51.347 8.537H49.2V4.693A4.686 4.686 0 0 0 44.52.009L28.2 0a3.456 3.456 0 0 0-2.46 1.019L1.371 25.385a4.681 4.681 0 0 0 0 6.62l15.813 15.812a4.687 4.687 0 0 0 6.62 0l15.341-15.341a1.074 1.074 0 1 0-1.519-1.519L22.284 46.3a2.535 2.535 0 0 1-3.581 0L2.89 30.486a2.533 2.533 0 0 1 0-3.582L27.256 2.538a1.322 1.322 0 0 1 .941-.39l16.321.009a2.536 2.536 0 0 1 2.532 2.535l-.005 9h-4.838a1.5 1.5 0 0 1-1.067-.445 3.965 3.965 0 1 0-2.345.243 3.658 3.658 0 0 0 3.412 2.35h4.837v5.149a1.319 1.319 0 0 1-.39.94L43.7 24.88a1.074 1.074 0 0 0 1.521 1.52l2.949-2.949a3.457 3.457 0 0 0 1.019-2.458v-5.151h2.155a3.652 3.652 0 0 0 0-7.3zM38.3 8.331a1.8 1.8 0 0 1 2.842.366 3.667 3.667 0 0 0-2.444 2.494 1.806 1.806 0 0 1-.4-2.86zm13.051 5.363h-2.157v-3.008h2.152a1.5 1.5 0 1 1 0 3.008zm0 0" data-name="Path 24594" style="stroke:#ebfaf8;stroke-width:.4px"/>
            <path id="prefix__Path_24595" d="M161.085 215.481a1.073 1.073 0 0 0 1.323.747l11.027-3.069a1.074 1.074 0 1 0-.576-2.07l-11.027 3.069a1.075 1.075 0 0 0-.747 1.323zm0 0" data-name="Path 24595" transform="translate(-143.746 -188.378)"/>
            <path id="prefix__Path_24596" d="M198.893 257.8a3.167 3.167 0 1 0 4.479 0 3.146 3.146 0 0 0-4.479 0zm2.96 2.96a1.018 1.018 0 1 1 0-1.441 1.02 1.02 0 0 1 0 1.445zm0 0" data-name="Path 24596" transform="translate(-176.699 -229.284)"/>
            <path id="prefix__Path_24597" d="M208.338 161.032a3.171 3.171 0 1 0-2.24.926 3.171 3.171 0 0 0 2.24-.926zm-2.96-2.96a1.019 1.019 0 1 1 0 1.441 1.012 1.012 0 0 1 0-1.441zm0 0" data-name="Path 24597" transform="translate(-181.133 -138.908)"/>
            <path id="prefix__Path_24598" d="M58.859 85.156a1.074 1.074 0 0 0-1.519 0l-3.052 3.052a1.074 1.074 0 0 0 0 1.519l13.621 13.623a1.075 1.075 0 0 0 1.519 0l20.366-20.367a1.074 1.074 0 0 0 0-1.519L76.173 67.842a1.074 1.074 0 0 0-1.519 0L63.416 79.08a1.074 1.074 0 0 0 1.519 1.52l10.479-10.479 12.1 12.1-18.845 18.85-12.1-12.1 2.293-2.293a1.074 1.074 0 0 0-.003-1.522zm0 0" data-name="Path 24598" transform="translate(-48.175 -60.274)" style="stroke-linecap:square;stroke-linejoin:round;stroke:#ebfaf8;stroke-width:.4px"/>
            <path id="prefix__Path_24599" d="M376.7 256.973a1.074 1.074 0 1 0 .759.315 1.082 1.082 0 0 0-.759-.315zm0 0" data-name="Path 24599" transform="translate(-335.272 -229.368)"/>
            <path id="prefix__Path_24600" d="M112.505 202.256a1.073 1.073 0 1 0-.759.315 1.076 1.076 0 0 0 .759-.315zm0 0" data-name="Path 24600" transform="translate(-98.783 -178.892)"/>
        </g>
    </g>
</svg>
