<svg xmlns="http://www.w3.org/2000/svg" width="70" height="70" viewBox="0 0 70 70">
    <defs>
        <style>
            .cls-2{fill:#1d1d1b}
        </style>
    </defs>
    <g id="Group_8010" transform="translate(0 -82.111)">
        <g id="Ellipse_1727" transform="translate(37.809 99.468)">
            <circle id="Ellipse_1774" cx="9.206" cy="9.206" r="9.206" fill="#42c8b7" transform="translate(.929 .93)"/>
            <path id="Path_25512" d="M44.7 118.252a10.136 10.136 0 1 1 10.14-10.136 10.148 10.148 0 0 1-10.14 10.136zm0-18.412a8.276 8.276 0 1 0 8.276 8.276 8.285 8.285 0 0 0-8.276-8.277z" class="cls-2" transform="translate(-34.568 -97.98)"/>
        </g>
        <path id="Path_25513" d="M47.833 104.8H46.6a3.582 3.582 0 0 0-.288-.737h1.518a.929.929 0 1 0 0-1.858h-7.215a.929.929 0 1 0 0 1.858h2.594a1.664 1.664 0 0 1 1.381.737h-3.975a.929.929 0 1 0 0 1.858h3.975a1.666 1.666 0 0 1-1.38.736h-2.595a.93.93 0 0 0-.657 1.587l4.963 4.963a.93.93 0 0 0 1.315-1.317l-3.376-3.375h.351a3.52 3.52 0 0 0 3.383-2.594h1.24a.929.929 0 1 0 0-1.858z" class="cls-2" transform="translate(3.72 1.884)"/>
        <g id="Path_24426" transform="translate(47.015 121.229)">
            <path id="Path_25514" d="M49.473 138.749a6.485 6.485 0 0 1-6.488-6.486v-13.457a.93.93 0 0 1 1.859 0v13.456a4.631 4.631 0 0 0 4.627 4.629 4.635 4.635 0 0 0 4.629-4.631v-10.173a2.355 2.355 0 0 0-2.352-2.353h-3.04a.929.929 0 1 1 0-1.858h3.042a4.216 4.216 0 0 1 4.211 4.21v10.174a6.493 6.493 0 0 1-6.484 6.489z" class="cls-2" transform="translate(-42.985 -117.876)"/>
        </g>
        <g id="Path_24427" transform="translate(10.011 92.119)">
            <path id="Path_25515" d="M14.454 141.239a5.3 5.3 0 0 1-5.3-5.3V96.561a5.319 5.319 0 0 1 5.3-5.3h28.285a5.317 5.317 0 0 1 5.3 5.3.928.928 0 0 1-.929.931.93.93 0 0 1-.93-.929 3.456 3.456 0 0 0-3.445-3.446H14.457a3.456 3.456 0 0 0-3.444 3.444v39.37a3.443 3.443 0 0 0 3.442 3.447h38.19a.929.929 0 1 1 0 1.858H14.454z" class="cls-2" transform="translate(-9.153 -91.261)"/>
        </g>
        <g id="Line_1693" transform="translate(14.397 99.773)">
            <path id="Path_25516" d="M34.781 100.117H14.093a.929.929 0 1 1 0-1.858h20.688a.929.929 0 1 1 0 1.858z" class="cls-2" transform="translate(-13.163 -98.259)"/>
        </g>
        <g id="Line_1694" transform="translate(14.397 107.974)">
            <path id="Path_25517" d="M31.994 107.615h-17.9a.929.929 0 1 1 0-1.858h17.9a.929.929 0 1 1 0 1.858z" class="cls-2" transform="translate(-13.163 -105.757)"/>
        </g>
        <g id="Line_1695" transform="translate(14.397 116.176)">
            <path id="Path_25518" d="M34.781 115.114H14.093a.929.929 0 1 1 0-1.858h20.688a.929.929 0 1 1 0 1.858z" class="cls-2" transform="translate(-13.163 -113.256)"/>
        </g>
        <g id="Line_1696" transform="translate(14.397 124.379)">
            <path id="Path_25519" d="M39.377 122.614H14.093a.929.929 0 1 1 0-1.858h25.284a.929.929 0 1 1 0 1.858z" class="cls-2" transform="translate(-13.163 -120.756)"/>
        </g>
        <g id="Line_1697" transform="translate(14.397 132.581)">
            <path id="Path_25520" d="M41.675 130.113H14.093a.929.929 0 1 1 0-1.858h27.582a.929.929 0 1 1 0 1.858z" class="cls-2" transform="translate(-13.163 -128.255)"/>
        </g>
        <path id="Rectangle_12177" fill="none" d="M0 0H70V70H0z" transform="translate(0 82.111)"/>
    </g>
</svg>
