<svg xmlns="http://www.w3.org/2000/svg" width="70" height="70" viewBox="0 0 70 70">
    <defs>
        <clipPath id="prefix__clip-path">
            <path id="prefix__Rectangle_12209" d="M0 0H70V70H0z" data-name="Rectangle 12209" transform="translate(240 1955)" style="fill:none;stroke:#707070"/>
        </clipPath>
        <style>
            .prefix__cls-3{fill:#42c8b7}
        </style>
    </defs>
    <g id="prefix__Mask_Group_75" data-name="Mask Group 75" transform="translate(-240 -1955)">
        <g id="prefix__Group_8547" data-name="Group 8547" transform="translate(17904.223 18893.441)">
            <g id="prefix__delivery-man" transform="translate(-17654 -16929)">
                <path id="prefix__Path_25194" d="M24 17h14.614l-.431 2.886-3.728 2.642v2.182l3.728 1.21.431 5.694H24l.64-5.694 2.029-1.21v-2.182L24 20.97z" class="prefix__cls-3" data-name="Path 25194" transform="translate(-5.327 -4.01)"/>
                <path id="prefix__Path_25213" d="M22.516 15.751l4.952-.7-.474 20.016-3.273-.817v-3.002z" class="prefix__cls-3" data-name="Path 25213" transform="translate(21.744 14.217)"/>
                <path id="prefix__Path_25214" d="M27.468 15.751l-4.952-.7.474 20.016 3.273-.817v-3.002z" class="prefix__cls-3" data-name="Path 25214" transform="translate(-16.414 14.217)"/>
                <path id="prefix__Path_25195" d="M35.4 26.031a2.32 2.32 0 0 0 .7.982v.008l-1.664 2.216L32 25.991h3.247l.13-.041c.008.024.017.057.023.081z" data-name="Path 25195" transform="translate(-6.832 -5.694)" style="fill:#969faa"/>
                <path id="prefix__Path_25196" d="M36.871 16.436v4.2l-.041.016a2.428 2.428 0 0 0-1.453 3.048l-.13.041H32V14h4.871z" class="prefix__cls-3" data-name="Path 25196" transform="translate(-6.832 -3.446)"/>
                <path id="prefix__Path_25197" d="M7.683 2a5.7 5.7 0 0 1 4.668 2.436h-.227A3.264 3.264 0 0 0 9.218 6.23l-.723 1.453H2A5.679 5.679 0 0 1 7.683 2z" class="prefix__cls-3" data-name="Path 25197" transform="translate(-1.188 -1.188)"/>
                <path id="prefix__Path_25198" d="M19.263 5.479a1.587 1.587 0 0 1 .479 1.145 1.629 1.629 0 0 1-1.624 1.624H10l.723-1.453A3.264 3.264 0 0 1 13.629 5h4.49a1.587 1.587 0 0 1 1.144.479z" class="prefix__cls-3" data-name="Path 25198" transform="translate(-2.693 -1.753)"/>
                <path id="prefix__Path_25205" d="M53.738 2a5.68 5.68 0 0 1 3.726 9.97l-2.021-3.532A4.711 4.711 0 0 0 52.836 6.3a4.633 4.633 0 0 0-1.486-.244h-3.06A5.68 5.68 0 0 1 53.738 2z" class="prefix__cls-3" data-name="Path 25205" transform="translate(-9.897 -1.188)"/>
                <path id="prefix__Path_25208" d="M47.978 13.178a6.5 6.5 0 1 0-6.114.083L35.1 15.8v-2.62h-3.249V9.119a3.247 3.247 0 0 0-6.495 0v4.059h-6.495v3.229l-8.389-3.146a6.5 6.5 0 0 0 3.462-4.954h2.492a2.436 2.436 0 0 0 0-4.871H12.55a6.488 6.488 0 1 0-8.193 9.742A6.5 6.5 0 0 0 1 18.863v29.225a3.234 3.234 0 0 0 5.683 2.125 3.234 3.234 0 0 0 5.683-2.125V20.909l6.495 2.436v6.071H35.1v-6.68l4.871-1.827v27.18a3.234 3.234 0 0 0 5.683 2.125 3.234 3.234 0 0 0 5.683-2.125V18.863a6.5 6.5 0 0 0-3.358-5.685zM44.841 2.624a4.862 4.862 0 0 1 3.884 7.8l-1.474-2.579a5.524 5.524 0 0 0-4.8-2.786h-1.822a4.87 4.87 0 0 1 4.212-2.436zM39.97 7.495a4.869 4.869 0 0 1 .073-.812h2.409a3.9 3.9 0 0 1 3.39 1.967l1.666 2.915a4.826 4.826 0 0 1-2.666.8 4.876 4.876 0 0 1-4.872-4.87zM33.475 14.8v1.605l-1.624.609V14.8zm-3.247 2.881a3.244 3.244 0 0 0-1.613 2.8H26.98v-8.115h3.247zm-1.185 4.426c.054.092.114.177.176.262l-.615.82-.812-1.082zM28.6 7.495a1.625 1.625 0 0 1 1.624 1.624v1.624H26.98V9.119a1.625 1.625 0 0 1 1.62-1.624zM17.237 5.871a.813.813 0 0 1-.812.812H9.62l.139-.278a2.421 2.421 0 0 1 2.178-1.346h4.488a.813.813 0 0 1 .812.812zM7.495 2.624a4.871 4.871 0 0 1 3.034 1.071A4.03 4.03 0 0 0 8.307 5.68l-.5 1H2.7a4.876 4.876 0 0 1 4.795-4.056zM2.7 8.307h9.6a4.865 4.865 0 0 1-9.6 0zm1.547 41.405a1.625 1.625 0 0 1-1.624-1.624V31.039h4.158a4.048 4.048 0 0 0-.909 2.55v14.5a1.625 1.625 0 0 1-1.625 1.623zm4.871 0a1.625 1.625 0 0 1-1.624-1.624v-14.5a2.432 2.432 0 0 1 1.086-2.025l.785-.524h1.378v17.049a1.625 1.625 0 0 1-1.624 1.624zm1.624-20.3H2.624V18.863A4.878 4.878 0 0 1 7.5 13.99a1.612 1.612 0 0 1 .563.1l13 4.873a1.626 1.626 0 0 1 .951 2.091 1.663 1.663 0 0 1-2.086.952L6.925 17.133l-.57 1.521 4.387 1.646zm22.732-1.624H20.485v-4.056a3.248 3.248 0 0 0 1.141-6.289l-1.141-.428V14.8h4.871v6.765L28.6 25.9l1.862-2.482a3.213 3.213 0 0 0 2.521.113l.489-.183zm9.742 21.92a1.625 1.625 0 0 1-1.624-1.624V31.039h1.378l.785.524a2.431 2.431 0 0 1 1.085 2.026v14.5a1.625 1.625 0 0 1-1.623 1.623zm4.871 0a1.625 1.625 0 0 1-1.624-1.624v-14.5a4.05 4.05 0 0 0-.909-2.55h4.157v17.054a1.625 1.625 0 0 1-1.623 1.624zm1.624-20.3h-8.118V20.3l4.387-1.646-.57-1.521-12.991 4.873a1.658 1.658 0 0 1-2.088-.952 1.626 1.626 0 0 1 .95-2.091l12.993-4.873a1.643 1.643 0 0 1 .566-.1 4.878 4.878 0 0 1 4.873 4.873z" data-name="Path 25208" transform="translate(-1 -1)"/>
            </g>
        </g>
    </g>
</svg>
