<svg xmlns="http://www.w3.org/2000/svg" width="70" height="70" viewBox="0 0 70 70">
    <defs>
        <clipPath id="prefix__clip-path">
            <path id="prefix__Rectangle_12207" d="M0 0H70V70H0z" data-name="Rectangle 12207" transform="translate(240 1955)" style="fill:none;stroke:#707070"/>
        </clipPath>
        <style>
            .prefix__cls-3{fill:#eaecf0}.prefix__cls-4{fill:#42c8b7}
        </style>
    </defs>
    <g id="prefix__Mask_Group_73" data-name="Mask Group 73" transform="translate(-240 -1955)">
        <g id="prefix__payment-method" transform="translate(-1084.359 2009.081)">
            <g id="prefix__Group_8546" data-name="Group 8546" transform="translate(1334 -44.896)">
                <path id="prefix__Path_25179" d="M153.749 385.854a.984.984 0 0 1-.195-.02.966.966 0 0 1-.188-.057 1.008 1.008 0 0 1-.172-.092.97.97 0 0 1-.276-.276.925.925 0 0 1-.092-.173.938.938 0 0 1-.057-.187.959.959 0 0 1 0-.389.967.967 0 0 1 .057-.188.946.946 0 0 1 .092-.172.97.97 0 0 1 .276-.276 1.019 1.019 0 0 1 .172-.092.968.968 0 0 1 .188-.057.983.983 0 0 1 .389 0 .94.94 0 0 1 .187.057.991.991 0 0 1 .173.092.97.97 0 0 1 .276.276 1.009 1.009 0 0 1 .092.172 1.044 1.044 0 0 1 .057.188.959.959 0 0 1 0 .389 1.012 1.012 0 0 1-.057.187.985.985 0 0 1-.092.173.97.97 0 0 1-.276.276.987.987 0 0 1-.173.092.938.938 0 0 1-.187.057.985.985 0 0 1-.194.02z" data-name="Path 25179" transform="translate(-137.495 -345.524)"/>
                <path id="prefix__Rectangle_12269" d="M0 0H3.783V10.73H0z" class="prefix__cls-3" data-name="Rectangle 12269" transform="translate(6.937 35.689)"/>
                <path id="prefix__Rectangle_12270" d="M0 0H5.938V12.592H0z" class="prefix__cls-4" data-name="Rectangle 12270" transform="translate(.999 35.689)"/>
                <path id="prefix__Path_25180" d="M45.939 318.417l-.012-.03c-.919-2.151-3.075-2.946-5.626-2.074l-6.958 1.924a4.561 4.561 0 0 0-2.824-2.781l-.026-.009-7.648-2.6a7.888 7.888 0 0 0-6.364-2.928 7.986 7.986 0 0 0-6.238 3.741H1a1 1 0 0 0-1 1v12.591a1 1 0 0 0 1 1h5.937a1 1 0 0 0 1-1v-.862h2.783a1 1 0 0 0 1-1v-.289a7.08 7.08 0 0 1 3.648 1.309 60.45 60.45 0 0 0 6 3.063l.044.018a8.964 8.964 0 0 0 3.213.606 7.96 7.96 0 0 0 3.309-.708l15.379-5.506q.041-.015.081-.033c1.468-.672 3.658-2.578 2.545-5.432zm-40 7.837H2V315.66h3.938zm3.783-1.861H7.935v-8.733h1.786zm32.873-2.372l-15.372 5.5-.045.017-.04.017a6.473 6.473 0 0 1-4.973.085 57.87 57.87 0 0 1-5.8-2.962 8.989 8.989 0 0 0-4.646-1.58v-8.044c.947-1.552 2.782-3.14 4.762-3.14a5.763 5.763 0 0 1 4.889 2.3 1 1 0 0 0 .53.423l7.937 2.694a2.241 2.241 0 0 1 1.63 2.644 1.946 1.946 0 0 1-2.391 1.343l-8.948-2.836a1 1 0 1 0-.6 1.9l8.963 2.84.029.009a3.962 3.962 0 0 0 1.084.152 3.949 3.949 0 0 0 3.787-2.867q.034-.121.061-.243l7.5-2.077c1.083-.37 2.5-.5 3.138.955.649 1.718-1.054 2.659-1.496 2.87z" data-name="Path 25180" transform="translate(0 -278.973)"/>
                <path id="prefix__Path_25181" d="M59.72 18.893l-8.87-8.87-11.121 11.121 19 19 9.528-9.528-2.8-2.626-8.767-4.259c-.226-.11-2.212-2.458-2.212-2.458l1.936-2.685" class="prefix__cls-4" data-name="Path 25181" transform="translate(-35.761 -9.024)"/>
                <path id="prefix__Path_25189" d="M340.249 125.495a.984.984 0 0 1-.195-.02 1.007 1.007 0 0 1-.187-.057.987.987 0 0 1-.173-.092.97.97 0 0 1-.276-.276.984.984 0 0 1-.092-.173.938.938 0 0 1-.057-.187.957.957 0 0 1 0-.389.968.968 0 0 1 .057-.188 1.011 1.011 0 0 1 .092-.172.971.971 0 0 1 .276-.276.985.985 0 0 1 .173-.092.939.939 0 0 1 .187-.057.995.995 0 0 1 .577.057 1.012 1.012 0 0 1 .172.092 1 1 0 0 1 .367.447.965.965 0 0 1 .058.188 1.01 1.01 0 0 1 0 .389.937.937 0 0 1-.058.187.919.919 0 0 1-.092.173.97.97 0 0 1-.276.276 1.014 1.014 0 0 1-.172.092 1.054 1.054 0 0 1-.187.057 1 1 0 0 1-.194.021z" data-name="Path 25189" transform="translate(-305.369 -111.167)"/>
                <path id="prefix__Rectangle_12271" d="M0 0H3.783V10.73H0z" class="prefix__cls-3" data-name="Rectangle 12271" transform="translate(40.413 6.242)"/>
                <path id="prefix__Rectangle_12272" d="M0 0H5.938V12.592H0z" class="prefix__cls-4" data-name="Rectangle 12272" transform="translate(44.196 4.381)"/>
                <path id="prefix__Path_25190" d="M76.86 3.406h-5.938a1 1 0 0 0-1 1v.862h-2.783a1 1 0 0 0-1 1v.287a7.081 7.081 0 0 1-3.648-1.309 60.43 60.43 0 0 0-6-3.063l-.044-.018a8.5 8.5 0 0 0-6.521.1L45.908 3.7 42.521.316a1 1 0 0 0-1.412 0L29.987 11.437a.99.99 0 0 0 0 1.412l19 19a1.079 1.079 0 0 0 1.412 0L60.556 21.7c.264.023.538.035.822.035a7.986 7.986 0 0 0 6.238-3.741h9.244a1 1 0 0 0 1-1V4.4a1 1 0 0 0-1-.994zm-32.513 9.262A4.421 4.421 0 0 0 47.34 16.2l.026.009 2 .678a3.7 3.7 0 1 1-5.016-4.221zm2-3.9a3.915 3.915 0 0 0-1.627 1.719 5.692 5.692 0 1 0 6.545 7.046l3.372 1.144a6.376 6.376 0 0 0 1.058 5.062l-2.283 2.281a6.346 6.346 0 0 0-7.429 0L35.821 15.858a6.347 6.347 0 0 0 0-7.43L38.1 6.149a6.347 6.347 0 0 0 7.43 0l2.16 2.16a3.941 3.941 0 0 0-1.345.459zM57.131 22.3a4.368 4.368 0 0 1-.638-2.077 7.766 7.766 0 0 0 1.761.954zM41.814 2.434L44.09 4.71a4.354 4.354 0 0 1-4.552 0zm-7.432 7.433a4.354 4.354 0 0 1 0 4.553l-2.276-2.276zM49.7 29.734l-2.276-2.276a4.348 4.348 0 0 1 4.552 0zm11.681-10a7.269 7.269 0 0 1-1.042-.073 5.72 5.72 0 0 1-3.7-2.024c-.02-.03-.107-.144-.12-.162a1 1 0 0 0-.55-.458l-7.94-2.695a2.241 2.241 0 0 1-1.63-2.643 1.946 1.946 0 0 1 2.39-1.34l8.948 2.835a1 1 0 1 0 .6-1.9l-7.119-2.261-.062-.062-3.686-3.686 3.167-1.134.034-.013h.01l.04-.017a6.472 6.472 0 0 1 4.979-.089 57.85 57.85 0 0 1 5.8 2.962 8.988 8.988 0 0 0 4.646 1.58V16.6c-.953 1.549-2.789 3.137-4.768 3.137zm6.756-12.47h1.786V16h-1.786zM75.861 16h-3.94V5.4h3.941z" data-name="Path 25190" transform="translate(-26.726 -.023)"/>
            </g>
        </g>
    </g>
</svg>
