<svg xmlns="http://www.w3.org/2000/svg" width="70" height="70" viewBox="0 0 70 70">
    <defs>
        <clipPath id="prefix__clip-path">
            <path id="prefix__Rectangle_12208" d="M0 0H70V70H0z" data-name="Rectangle 12208" transform="translate(240 1955)" style="fill:none;stroke:#707070"/>
        </clipPath>
        <style>
            .prefix__cls-4{fill:#42c8b7}
        </style>
    </defs>
    <g id="prefix__Group_74" data-name="Group 74" transform="translate(-240 -1955)">
        <g id="prefix__Group_8548" data-name="Group 8548" transform="translate(-985.126 296.223)">
            <g id="prefix__Group_8548-2" data-name="Group 8548" transform="translate(1237.371 1664)">
                <path id="prefix__Path_25223" d="M-1304.007 367.559c-.245-.706.242-1.331.658-1.96a7.333 7.333 0 0 1 .859-1.019q2.687-2.786 5.389-5.556a1.611 1.611 0 0 0 .488-1.166c0-1.162.053-2.328-.033-3.483a13.765 13.765 0 0 0-.5-2.183 16.8 16.8 0 0 0-2.414-5.012 21.363 21.363 0 0 1-1.248-2.316 2.613 2.613 0 0 1 .067-2.3 4.843 4.843 0 0 1 4.358-3.017A4.753 4.753 0 0 1-1293 340.7a16.113 16.113 0 0 1 3.278 4.057c.231.381.451.769.678 1.152.639 1.076.879 1.077 2.136.938a8.142 8.142 0 0 0 4.777-2.491c2.565-2.494 5.073-5.048 7.609-7.572 1.763-1.754 3.521-3.512 5.306-5.243a23.994 23.994 0 0 1 2.033-1.734 3.917 3.917 0 0 1 4.242-.447 4.435 4.435 0 0 1 1.431 7.176c-1.554 1.707-3.219 3.313-4.834 4.965a7.524 7.524 0 0 0-.557.586.957.957 0 0 0 .1 1.459c.352.343.731.663 1.051 1.033a4.751 4.751 0 0 1 1.06 3.407 1.343 1.343 0 0 0 .777 1.335 4.539 4.539 0 0 1 2.53 3.507 7.51 7.51 0 0 1 .035 1.368 1.5 1.5 0 0 0 .866 1.518 4.462 4.462 0 0 1 2.153 2.667 4.038 4.038 0 0 1-.97 4.2c-1.005 1.113-2.07 2.172-3.128 3.235-1.539 1.547-3.07 3.1-4.65 4.606a17.118 17.118 0 0 1-4.951 3.283 21.63 21.63 0 0 1-5.98 1.457c-.286.039-.584-.007-.872.025a2.746 2.746 0 0 0-1.627.834c-1.795 1.755-3.582 3.517-5.383 5.265a7.842 7.842 0 0 1-1.183.989 3.924 3.924 0 0 1-2.993.286 14.013 14.013 0 0 1-5.461-2.459 24.64 24.64 0 0 1-6.635-7.038 13.177 13.177 0 0 1-1.527-3.652 3.087 3.087 0 0 0-.261-.473.634.634 0 0 1-.063-.26c.002-.326.006-.655.006-1.12zm25.015 4.927a14.435 14.435 0 0 0 2.124-.016 14.681 14.681 0 0 0 5.789-2.053 16.256 16.256 0 0 0 2.226-1.76c.654-.608.606-.824-.039-1.42-.1-.1-.2-.195-.315-.281a5.033 5.033 0 0 1-1.537-2.189 5.577 5.577 0 0 1-.246-2.254 1.428 1.428 0 0 0-.711-1.323 5.118 5.118 0 0 1-2.346-3.042 1.668 1.668 0 0 0-1.166-1.228 5.042 5.042 0 0 1-2.972-2.15 4.1 4.1 0 0 1-.274-4.118 8.224 8.224 0 0 1 1.416-1.949c1.947-2.016 3.943-3.985 5.923-5.968q3.581-3.586 7.166-7.169a3.846 3.846 0 0 0 1.016-1.542 1.868 1.868 0 0 0-.65-2.107 1.778 1.778 0 0 0-2.132-.131 7.36 7.36 0 0 0-1.163.9c-.945.911-1.861 1.852-2.79 2.78l-9.979 9.98a13.76 13.76 0 0 1-4 2.949 26.969 26.969 0 0 1-2.636.958c-.791.262-.958.509-.868 1.343a8.192 8.192 0 0 1 .04 1.257 1.249 1.249 0 0 1-.894 1.1.978.978 0 0 1-1.177-.613 9.8 9.8 0 0 1-.589-1.572 19.4 19.4 0 0 0-2.716-5.876 9.833 9.833 0 0 0-2.078-2.326 2.469 2.469 0 0 0-3.494.349 1.2 1.2 0 0 0-.2 1.282 8.191 8.191 0 0 0 .458.908c.457.778.974 1.524 1.384 2.325a20.056 20.056 0 0 1 2 5.163 24.642 24.642 0 0 1 .463 2.8c.108 1.317.072 2.646.162 3.966a13.535 13.535 0 0 0 2.424 6.588 4.08 4.08 0 0 0 3.064 2.02c1.784.173 3.062-.481 3.509-2.354a5.917 5.917 0 0 1 .359-1.027 1.085 1.085 0 0 1 1.734-.348 1.373 1.373 0 0 1 .437 1.18 5.083 5.083 0 0 1-2.047 4.018c-.428.308-.874.591-1.3.906-.281.209-.277.378.01.581a2.93 2.93 0 0 0 .7.4 12.705 12.705 0 0 0 5.915 1.063zm-22.446-4.362c.044.289.066.583.136.865a7.191 7.191 0 0 0 .329 1.035 19.325 19.325 0 0 0 5.913 7.433 12.245 12.245 0 0 0 5.042 2.678 2.425 2.425 0 0 0 2.334-.475c.785-.72 1.514-1.5 2.261-2.262.608-.619 1.224-1.231 1.8-1.876.362-.4.24-.786-.261-.992-.39-.16-.78-.321-1.177-.462a17.371 17.371 0 0 1-7.586-5.457 17.422 17.422 0 0 1-2.768-4.909 6.93 6.93 0 0 0-.5-1.079c-.2-.334-.436-.371-.776-.174a3.211 3.211 0 0 0-.649.471q-1.712 1.7-3.4 3.416a2.35 2.35 0 0 0-.698 1.788zm25.21-15.741a1.767 1.767 0 0 0 1.008 1.748 1.923 1.923 0 0 0 2.336-.35c1.385-1.3 2.737-2.632 4.092-3.963a5.368 5.368 0 0 0 1.324-1.667 1.935 1.935 0 0 0-.663-2.371 2.068 2.068 0 0 0-2.721.341q-2.341 2.284-4.624 4.627a1.961 1.961 0 0 0-.752 1.635zm7.907 10.992a1.827 1.827 0 0 0 2.214 1.9 2.151 2.151 0 0 0 1.253-.582c1.161-1.159 2.319-2.32 3.46-3.5a2.676 2.676 0 0 0 .481-.77 1.991 1.991 0 0 0-1.437-2.763 1.943 1.943 0 0 0-1.7.582c-1.234 1.148-2.432 2.335-3.608 3.543a2.187 2.187 0 0 0-.663 1.59zm-3.154-6.077a1.812 1.812 0 0 0 2.557 1.607 5 5 0 0 0 1.361-.9c.745-.678 1.44-1.412 2.139-2.139.389-.4.756-.833 1.112-1.268a1.682 1.682 0 0 0 .409-1.2 1.892 1.892 0 0 0-1.2-1.757 1.887 1.887 0 0 0-2.149.388c-1.178 1.126-2.357 2.251-3.511 3.4a2.444 2.444 0 0 0-.718 1.871z" data-name="Path 25223" transform="translate(1304.073 -322.666)" style="stroke:#d9f4f1;stroke-width:.5px"/>
                <path id="prefix__Path_25224" d="M-1184.562 256.521a2.282 2.282 0 0 1-.07.412c-.139.388-.33.76-.8.778a1.306 1.306 0 0 1-1.251-.708c-.458-.844-.9-1.7-1.314-2.564q-2.829-5.992-5.622-12a4.836 4.836 0 0 1-.368-1.48.888.888 0 0 1 .6-.976 1.085 1.085 0 0 1 1.163.273 5.008 5.008 0 0 1 1.087 1.749q2.126 4.5 4.237 9c.71 1.518 1.4 3.044 2.087 4.573a8.541 8.541 0 0 1 .3.923z" data-name="Path 25224" transform="translate(1201.756 -239.911)"/>
                <path id="prefix__Path_25225" d="M-940.04 239.952a.931.931 0 0 1 .886 1.184 13.822 13.822 0 0 1-.74 1.964c-1.087 2.374-2.2 4.739-3.306 7.1-.249.53-.528 1.047-.809 1.56a1.867 1.867 0 0 1-.367.466 1.162 1.162 0 0 1-1.361.2 1.128 1.128 0 0 1-.457-1.418q.607-1.478 1.282-2.928 1.492-3.2 3.022-6.382a10.964 10.964 0 0 1 .67-1.154 1.239 1.239 0 0 1 1.18-.592z" data-name="Path 25225" transform="translate(971.505 -239.948)"/>
                <path id="prefix__Path_25226" d="M-1042.565 287.094a5.83 5.83 0 0 1 .432-1.048.96.96 0 0 1 1.609-.1 2.659 2.659 0 0 1 .573 1.629q.351 3.089.675 6.18a1.163 1.163 0 0 1-.489 1.17.981.981 0 0 1-1.159.009 1.392 1.392 0 0 1-.482-.726 19.587 19.587 0 0 1-.442-2.169c-.225-1.54-.413-3.085-.615-4.628-.012-.093-.015-.187-.022-.28z" data-name="Path 25226" transform="translate(1060.996 -282.339)"/>
                <path id="prefix__Path_25230" d="M-841.88 654.681c-.011-.817-.433-.918.708-2.439 1.154-1.15 2.553-2.419 3.731-3.545a2.078 2.078 0 0 1 2.255-.458 2.32 2.32 0 0 1 1.7 2.2 2.945 2.945 0 0 1-.565 1.6c-.356.435-.94 1.1-1.329 1.5-.7.727-2.415 2.621-3.365 2.849-1.655.52-3.107-.457-3.135-1.707z" class="prefix__cls-4" data-name="Path 25230" transform="translate(874.129 -619.726)"/>
                <path id="prefix__Path_25231" d="M-841.935 654.784c-.313-.787-.6-1.278.537-2.8 1.154-1.15 2.558-2.458 3.736-3.583a2.525 2.525 0 0 1 2.492-.57 3.039 3.039 0 0 1 1.711 2.647 2.945 2.945 0 0 1-.565 1.6c-.356.435-.94 1.1-1.329 1.5-.7.727-2.415 2.621-3.365 2.849a2.756 2.756 0 0 1-3.217-1.643z" class="prefix__cls-4" data-name="Path 25231" transform="translate(877.41 -613.154)"/>
                <path id="prefix__Path_25227" d="M-1266.7 808.787a2.48 2.48 0 0 1 .738-1.885q1.782-1.813 3.588-3.6a3.372 3.372 0 0 1 .684-.5c.358-.208 1.055-.353 1.268 0a7.315 7.315 0 0 1 .527 1.138 18.369 18.369 0 0 0 2.919 5.177 18.181 18.181 0 0 0 8.02 5.661c.419.148.811.412 1.223.581.529.217.207.805-.174 1.23-.611.68-1.261 1.326-1.9 1.978-.788.8-1.557 1.626-2.385 2.385a2.557 2.557 0 0 1-2.461.5 13.425 13.425 0 0 1-5.5-2.724 19.429 19.429 0 0 1-5.997-7.728 10.766 10.766 0 0 1-.409-1.3c-.074-.3-.098-.608-.141-.913z" class="prefix__cls-4" data-name="Path 25227" transform="translate(1268.818 -763.529)"/>
                <path id="prefix__Path_25228" d="M-909.3 570a2.126 2.126 0 0 1 .814-1.773q2.481-2.533 5.014-5.017a2.421 2.421 0 0 1 3.11-.125 2.4 2.4 0 0 1 .776 2.77 5.062 5.062 0 0 1-1.226 1.763c-1.469 1.443-3.028 2.976-4.529 4.384a2.319 2.319 0 0 1-2.706.138A2.414 2.414 0 0 1-909.3 570z" class="prefix__cls-4" data-name="Path 25228" transform="translate(936.605 -540.321)"/>
            </g>
        </g>
    </g>
</svg>
