<svg xmlns="http://www.w3.org/2000/svg" width="70" height="70" viewBox="0 0 70 70">
    <defs>
        <clipPath id="prefix__clip-path">
            <path id="prefix__Rectangle_12211" d="M0 0H70V70H0z" data-name="Rectangle 12211" transform="translate(240 1955)" style="fill:none;stroke:#707070"/>
        </clipPath>
        <style>
            .prefix__cls-4,.prefix__cls-5{fill:#030504;stroke:#000}.prefix__cls-4{stroke-width:.4px}.prefix__cls-5{stroke-width:.5px}
        </style>
    </defs>
    <g id="prefix__Mask_Group_77" data-name="Mask Group 77" transform="translate(-240 -1955)">
        <g id="prefix__Group_2" data-name="Group 2" transform="translate(53.167 1681.121)">
            <path id="prefix__Path_1" d="M219.219 299.184v7.3a22.669 22.669 0 0 0 12.533 20.277 22.665 22.665 0 0 0 4.964-3.369v10.892a3.471 3.471 0 0 1-3.471 3.471h-18.683a3.471 3.471 0 0 1-3.471-3.471v-45.129a3.471 3.471 0 0 1 3.471-3.471h2.85v.025a3.307 3.307 0 0 0 3.307 3.307h6.368a3.307 3.307 0 0 0 3.307-3.307v-.025h2.85a3.471 3.471 0 0 1 3.471 3.471v9.137a32.546 32.546 0 0 1-4.514-1.435l-.449-.179-.447.179a32.507 32.507 0 0 1-12.086 2.327z" data-name="Path 1" transform="translate(-3.227 -3.229)" style="fill:#42c8b7"/>
            <g id="prefix__Group_1" data-name="Group 1" transform="translate(207.093 281.684)">
                <g id="prefix__Path_2" data-name="Path 2">
                    <path id="prefix__Path_24665" d="M230.017 335.294h-18.682a4.247 4.247 0 0 1-4.242-4.242v-45.126a4.247 4.247 0 0 1 4.242-4.242h18.682a4.247 4.247 0 0 1 4.242 4.242v8.751a.771.771 0 1 1-1.543 0v-8.751a2.7 2.7 0 0 0-2.7-2.7h-18.681a2.7 2.7 0 0 0-2.7 2.7v45.125a2.7 2.7 0 0 0 2.7 2.7h18.682a2.7 2.7 0 0 0 2.7-2.7V320.59a.771.771 0 1 1 1.543 0v10.461a4.247 4.247 0 0 1-4.243 4.243z" class="prefix__cls-4" data-name="Path 24665" transform="translate(-207.093 -281.684)"/>
                </g>
                <g id="prefix__Rectangle_2" data-name="Rectangle 2" transform="translate(6.322)">
                    <path id="prefix__Path_24666" d="M250.32 286.559h-6.366a4.083 4.083 0 0 1-4.079-4.079v-.025a.771.771 0 0 1 .771-.771h12.98a.771.771 0 0 1 .771.771v.025a4.083 4.083 0 0 1-4.077 4.079zm-8.789-3.332a2.54 2.54 0 0 0 2.424 1.79h6.366a2.54 2.54 0 0 0 2.424-1.79z" class="prefix__cls-4" data-name="Path 24666" transform="translate(-239.876 -281.684)"/>
                </g>
                <g id="prefix__Line_651" data-name="Line 651" transform="translate(9.609 48.747)">
                    <path id="prefix__Path_24667" d="M264.1 536.011h-6.406a.771.771 0 1 1 0-1.543h6.406a.771.771 0 1 1 0 1.543z" class="prefix__cls-4" data-name="Path 24667" transform="translate(-256.921 -534.468)"/>
                </g>
            </g>
            <g id="prefix__Path_3" data-name="Path 3" transform="translate(215.221 292.678)">
                <path id="prefix__Path_24668" d="M262.544 370.317a.773.773 0 0 1-.345-.081 23.443 23.443 0 0 1-12.959-20.968v-7.294a.772.772 0 0 1 .771-.771 31.612 31.612 0 0 0 11.8-2.272l.449-.179a.772.772 0 0 1 .572 0l.449.179a31.616 31.616 0 0 0 11.8 2.273.772.772 0 0 1 .771.771v7.294a23.443 23.443 0 0 1-12.959 20.968.774.774 0 0 1-.349.08zm-11.761-27.58v6.531a21.9 21.9 0 0 0 11.761 19.411 21.9 21.9 0 0 0 11.762-19.411v-6.531a33.144 33.144 0 0 1-11.6-2.374l-.162-.065-.162.065a33.135 33.135 0 0 1-11.599 2.374z" class="prefix__cls-5" data-name="Path 24668" transform="translate(-249.24 -338.696)"/>
            </g>
            <g id="prefix__Path_4" data-name="Path 4" transform="translate(221.268 302.038)">
                <path id="prefix__Path_24669" d="M285.685 398.592a.769.769 0 0 1-.545-.226l-4.313-4.313a.771.771 0 1 1 1.091-1.091l3.768 3.768 9.27-9.27a.771.771 0 0 1 1.091 1.091l-9.816 9.815a.769.769 0 0 1-.546.226z" class="prefix__cls-5" data-name="Path 24669" transform="translate(-280.6 -387.233)"/>
            </g>
        </g>
    </g>
</svg>
